<svg xmlns="http://www.w3.org/2000/svg" width="34.106" height="35" viewBox="0 0 34.106 35">
  <path id="Icon_awesome-arrow-up" data-name="Icon awesome-arrow-up" d="M2.682,22.365.948,20.631a1.867,1.867,0,0,1,0-2.648L16.126,2.8a1.867,1.867,0,0,1,2.648,0L33.952,17.975a1.867,1.867,0,0,1,0,2.648l-1.734,1.734a1.877,1.877,0,0,1-2.679-.031l-8.96-9.405V35.372A1.87,1.87,0,0,1,18.7,37.246H16.2a1.87,1.87,0,0,1-1.875-1.875V12.921L5.362,22.334a1.863,1.863,0,0,1-2.679.031Z" transform="translate(-0.397 -2.247)"/>
</svg>
